<?xml version="1.0" standalone="no"?>
<!DOCTYPE svg PUBLIC "-//W3C//DTD SVG 20010904//EN"
 "http://www.w3.org/TR/2001/REC-SVG-20010904/DTD/svg10.dtd">
<svg version="1.0" xmlns="http://www.w3.org/2000/svg"
 width="347.000000pt" height="400.000000pt" viewBox="0 0 347.000000 400.000000"
 preserveAspectRatio="xMidYMid meet">

<g transform="translate(0.000000,400.000000) scale(0.100000,-0.100000)"
fill="#000000" stroke="none">
<path d="M1967 2673 c-4 -207 -7 -519 -7 -692 l0 -317 -65 -64 -65 -64 0 -93
c0 -51 3 -93 6 -93 3 0 74 65 157 144 84 79 169 158 189 175 103 89 252 294
342 470 96 188 138 342 151 553 6 99 9 108 32 123 61 40 80 160 32 211 -21 22
-29 24 -131 24 l-108 0 -20 -32 c-23 -39 -26 -107 -6 -146 8 -15 28 -40 46
-55 31 -28 31 -29 25 -100 -9 -106 -33 -229 -61 -317 -50 -161 -190 -400 -307
-525 l-64 -69 -6 249 c-4 138 -7 404 -7 591 0 188 -3 356 -6 373 -6 30 -8 31
-64 31 l-57 0 -6 -377z m714 338 c61 -62 14 -161 -77 -161 -40 0 -84 51 -84
97 0 38 22 76 50 86 41 15 82 6 111 -22z"/>
<path d="M1301 888 c-84 -43 -86 -50 -86 -288 0 -196 1 -210 21 -237 33 -44
81 -67 139 -67 94 0 155 59 158 151 l2 48 -42 3 -43 3 0 -40 c0 -52 -27 -81
-74 -81 -19 0 -44 9 -57 19 -24 19 -24 22 -24 201 0 182 0 182 25 202 19 15
34 19 64 15 48 -7 66 -28 66 -79 l0 -39 43 3 42 3 -2 48 c-3 86 -54 141 -144
153 -34 4 -54 0 -88 -18z"/>
<path d="M675 889 c-3 -8 -4 -142 -3 -299 l3 -285 105 0 c120 0 159 15 195 75
18 32 20 52 20 220 0 208 -7 235 -75 274 -45 26 -236 37 -245 15z m221 -104
c11 -14 14 -61 14 -187 0 -201 -3 -208 -95 -208 l-55 0 0 211 0 211 61 -4 c45
-3 65 -10 75 -23z"/>
<path d="M1737 893 c-5 -9 89 -569 98 -583 9 -15 115 -13 120 3 10 24 101 578
96 582 -2 3 -21 5 -42 5 -44 0 -35 25 -79 -234 -16 -99 -32 -182 -35 -184 -3
-3 -5 -3 -5 -1 0 2 -16 94 -35 204 -19 110 -35 203 -35 207 0 10 -77 10 -83 1z"/>
<path d="M2320 898 c0 -2 -23 -133 -50 -293 -27 -159 -50 -294 -50 -298 0 -5
19 -7 42 -5 36 3 43 7 48 28 5 23 11 25 72 28 l65 3 6 -31 c6 -27 10 -30 47
-30 31 0 40 4 40 18 0 9 -22 143 -48 297 l-48 280 -62 3 c-34 2 -62 2 -62 0z
m89 -314 c12 -67 21 -124 21 -128 0 -7 -84 -8 -92 -1 -5 5 27 216 38 244 8 24
12 10 33 -115z"/>
<path d="M2700 855 l0 -45 60 0 60 0 2 -252 3 -253 40 0 40 0 3 252 2 252 58
3 57 3 0 40 0 40 -162 3 -163 2 0 -45z"/>
</g>
</svg>
